<svg width="198" height="52" viewBox="0 0 198 52" fill="none" xmlns="http://www.w3.org/2000/svg">
<path d="M15.2029 13.5H15.7565C18.672 13.9539 19.4625 15.6961 22.0031 15.6961C24.5437 15.6961 25.3341 13.9539 28.2503 13.5H28.564C29.3435 13.5 30.1154 13.6617 30.8356 13.9758C31.5558 14.2898 32.2102 14.7502 32.7614 15.3306C33.3126 15.9109 33.7498 16.5999 34.0481 17.3582C34.3465 18.1165 34.5 18.9292 34.5 19.75V20.1618C34.5 22.0717 32.5692 24.252 32.0006 26.3178C31.3976 28.5112 30.9846 30.3046 30.8634 32.1803C30.5791 36.5757 29.1557 38.5 27.6267 38.5C25.3435 38.5 23.3165 28.648 22.0424 28.648C20.7678 28.648 18.2403 38.5 16.3795 38.5C15.2441 38.5 13.7739 37.7928 13.2215 32.1803C13.0015 29.9474 12.6304 28.5928 12.0055 26.3178C11.4557 24.3178 9.60113 21.9283 9.50616 19.7836C9.47033 18.9724 9.59113 18.1621 9.86125 17.4015C10.1314 16.6409 10.5452 15.9459 11.0777 15.3585C11.6102 14.7712 12.2504 14.3036 12.9594 13.9842C13.6684 13.6647 14.4317 13.5 15.2029 13.5Z" stroke="#05284B" stroke-width="4"/>
<path d="M16.6807 21.9139L27.0025 18.4099M16.6807 18.4099L27.0025 21.9139L16.6807 18.4099Z" stroke="#05284B" stroke-width="4" stroke-linecap="round"/>
<path d="M63.1138 26.9058C63.1138 28.9159 62.7476 30.5964 62.0151 31.9473C61.2827 33.29 60.2207 34.3032 58.8291 34.9868C57.4456 35.6623 55.7651 36 53.7876 36H48.9414V18.1533H54.3247C56.1395 18.1533 57.702 18.487 59.0122 19.1543C60.3224 19.8135 61.3315 20.7941 62.0396 22.0962C62.7557 23.3901 63.1138 24.9933 63.1138 26.9058ZM60.9287 26.979C60.9287 25.3758 60.6602 24.0534 60.123 23.0117C59.5941 21.9701 58.8128 21.1969 57.7793 20.6924C56.7539 20.1797 55.4966 19.9233 54.0073 19.9233H51.0166V34.2178H53.5435C56.0011 34.2178 57.8444 33.6115 59.0732 32.3989C60.3102 31.1864 60.9287 29.3797 60.9287 26.979ZM73.1772 22.377C74.3166 22.377 75.2931 22.6292 76.1069 23.1338C76.9207 23.6383 77.5433 24.3464 77.9746 25.2578C78.4059 26.1611 78.6216 27.2191 78.6216 28.4316V29.689H69.3809C69.4053 31.2596 69.7959 32.4559 70.5527 33.2778C71.3096 34.0998 72.3757 34.5107 73.751 34.5107C74.5973 34.5107 75.346 34.4334 75.9971 34.2788C76.6481 34.1242 77.3236 33.8963 78.0234 33.5952V35.3774C77.348 35.6785 76.6766 35.8983 76.0093 36.0366C75.3501 36.175 74.5688 36.2441 73.6655 36.2441C72.3797 36.2441 71.2567 35.9837 70.2964 35.4629C69.3442 34.9339 68.6037 34.1608 68.0747 33.1436C67.5457 32.1263 67.2812 30.8812 67.2812 29.4082C67.2812 27.9678 67.5213 26.7227 68.0015 25.6729C68.4897 24.6149 69.1733 23.8011 70.0522 23.2314C70.9393 22.6618 71.981 22.377 73.1772 22.377ZM73.1528 24.0371C72.0705 24.0371 71.2078 24.3911 70.5649 25.0991C69.922 25.8071 69.5396 26.7959 69.4175 28.0654H76.4976C76.4894 27.2679 76.3633 26.568 76.1191 25.9658C75.8831 25.3555 75.521 24.8835 75.0327 24.5498C74.5444 24.208 73.9178 24.0371 73.1528 24.0371ZM89.6494 22.377C91.2363 22.377 92.4367 22.7676 93.2505 23.5488C94.0643 24.3219 94.4712 25.5671 94.4712 27.2842V36H92.4692V27.4185C92.4692 26.3035 92.2129 25.4694 91.7002 24.916C91.1956 24.3626 90.4185 24.0859 89.3687 24.0859C87.8875 24.0859 86.8459 24.505 86.2437 25.3433C85.6414 26.1815 85.3403 27.3981 85.3403 28.9932V36H83.314V22.6211H84.9497L85.2549 24.5498H85.3647C85.6496 24.0778 86.0117 23.6831 86.4512 23.3657C86.8906 23.0402 87.383 22.7961 87.9282 22.6333C88.4735 22.4624 89.0472 22.377 89.6494 22.377ZM104.217 34.584C104.551 34.584 104.893 34.5555 105.243 34.4985C105.593 34.4416 105.877 34.3724 106.097 34.291V35.8657C105.861 35.9715 105.532 36.061 105.108 36.1343C104.693 36.2075 104.286 36.2441 103.888 36.2441C103.18 36.2441 102.537 36.1221 101.959 35.8779C101.381 35.6257 100.917 35.2025 100.567 34.6084C100.226 34.0143 100.055 33.1924 100.055 32.1426V24.208H98.1504V23.2192L100.067 22.4258L100.873 19.5205H102.093V22.6211H106.012V24.208H102.093V32.0815C102.093 32.9198 102.285 33.5464 102.667 33.9614C103.058 34.3765 103.574 34.584 104.217 34.584ZM112.083 22.6211V36H110.057V22.6211H112.083ZM111.095 17.6162C111.428 17.6162 111.713 17.7261 111.949 17.9458C112.193 18.1574 112.315 18.491 112.315 18.9468C112.315 19.3944 112.193 19.728 111.949 19.9478C111.713 20.1675 111.428 20.2773 111.095 20.2773C110.745 20.2773 110.452 20.1675 110.216 19.9478C109.988 19.728 109.874 19.3944 109.874 18.9468C109.874 18.491 109.988 18.1574 110.216 17.9458C110.452 17.7261 110.745 17.6162 111.095 17.6162ZM126.285 32.3379C126.285 33.1924 126.069 33.9126 125.638 34.4985C125.215 35.0763 124.605 35.5117 123.807 35.8047C123.018 36.0977 122.074 36.2441 120.975 36.2441C120.039 36.2441 119.229 36.1709 118.546 36.0244C117.862 35.8779 117.264 35.6704 116.751 35.4019V33.5342C117.297 33.8027 117.948 34.0469 118.705 34.2666C119.461 34.4863 120.235 34.5962 121.024 34.5962C122.18 34.5962 123.018 34.409 123.539 34.0347C124.059 33.6603 124.32 33.1517 124.32 32.5088C124.32 32.1426 124.214 31.8211 124.002 31.5444C123.799 31.2596 123.453 30.987 122.965 30.7266C122.477 30.458 121.801 30.165 120.938 29.8477C120.084 29.5221 119.343 29.2007 118.717 28.8833C118.098 28.5578 117.618 28.1631 117.276 27.6992C116.943 27.2354 116.776 26.6331 116.776 25.8926C116.776 24.7614 117.232 23.8947 118.143 23.2925C119.063 22.6821 120.267 22.377 121.756 22.377C122.562 22.377 123.315 22.4583 124.015 22.6211C124.723 22.7757 125.382 22.9873 125.992 23.2559L125.309 24.8794C124.755 24.6434 124.165 24.444 123.539 24.2812C122.912 24.1185 122.273 24.0371 121.622 24.0371C120.686 24.0371 119.966 24.1917 119.461 24.501C118.965 24.8102 118.717 25.2334 118.717 25.7705C118.717 26.1855 118.831 26.5273 119.059 26.7959C119.295 27.0645 119.669 27.3167 120.182 27.5527C120.694 27.7887 121.37 28.0654 122.208 28.3828C123.046 28.6921 123.771 29.0135 124.381 29.3472C124.991 29.6727 125.459 30.0715 125.785 30.5435C126.118 31.0073 126.285 31.6055 126.285 32.3379ZM135.116 34.584C135.449 34.584 135.791 34.5555 136.141 34.4985C136.491 34.4416 136.776 34.3724 136.996 34.291V35.8657C136.76 35.9715 136.43 36.061 136.007 36.1343C135.592 36.2075 135.185 36.2441 134.786 36.2441C134.078 36.2441 133.435 36.1221 132.857 35.8779C132.28 35.6257 131.816 35.2025 131.466 34.6084C131.124 34.0143 130.953 33.1924 130.953 32.1426V24.208H129.049V23.2192L130.965 22.4258L131.771 19.5205H132.992V22.6211H136.91V24.208H132.992V32.0815C132.992 32.9198 133.183 33.5464 133.565 33.9614C133.956 34.3765 134.473 34.584 135.116 34.584ZM152.455 36L150.257 30.3359H143.104L140.919 36H138.819L145.802 18.0801H147.669L154.603 36H152.455ZM149.635 28.4927L147.547 22.8652C147.499 22.7188 147.417 22.4787 147.303 22.145C147.197 21.8114 147.088 21.4655 146.974 21.1074C146.86 20.7493 146.766 20.4604 146.693 20.2407C146.611 20.5744 146.522 20.908 146.424 21.2417C146.335 21.5672 146.245 21.8724 146.156 22.1572C146.066 22.4339 145.989 22.6699 145.924 22.8652L143.8 28.4927H149.635ZM164.312 22.377C165.981 22.377 167.311 22.9507 168.304 24.0981C169.297 25.2456 169.793 26.9709 169.793 29.2739C169.793 30.7957 169.566 32.0734 169.11 33.1069C168.654 34.1405 168.011 34.9217 167.181 35.4507C166.359 35.9797 165.387 36.2441 164.264 36.2441C163.556 36.2441 162.933 36.1506 162.396 35.9634C161.859 35.7762 161.399 35.5239 161.017 35.2065C160.634 34.8892 160.317 34.5433 160.064 34.1689H159.918C159.942 34.4863 159.971 34.8688 160.003 35.3164C160.044 35.764 160.064 36.1546 160.064 36.4883V41.9814H158.026V22.6211H159.698L159.967 24.5986H160.064C160.325 24.1917 160.642 23.8215 161.017 23.4878C161.391 23.146 161.847 22.8774 162.384 22.6821C162.929 22.4787 163.572 22.377 164.312 22.377ZM163.958 24.0859C163.031 24.0859 162.282 24.265 161.712 24.623C161.151 24.9811 160.74 25.5182 160.479 26.2344C160.219 26.9424 160.081 27.8335 160.064 28.9077V29.2983C160.064 30.4295 160.187 31.3857 160.431 32.167C160.683 32.9482 161.094 33.5423 161.664 33.9492C162.241 34.3561 163.014 34.5596 163.983 34.5596C164.813 34.5596 165.505 34.3358 166.058 33.8882C166.611 33.4406 167.022 32.818 167.291 32.0205C167.568 31.2148 167.706 30.2912 167.706 29.2495C167.706 27.6707 167.397 26.4175 166.778 25.4897C166.168 24.5539 165.228 24.0859 163.958 24.0859ZM180.87 22.377C182.538 22.377 183.869 22.9507 184.862 24.0981C185.855 25.2456 186.351 26.9709 186.351 29.2739C186.351 30.7957 186.123 32.0734 185.667 33.1069C185.212 34.1405 184.569 34.9217 183.739 35.4507C182.917 35.9797 181.944 36.2441 180.821 36.2441C180.113 36.2441 179.491 36.1506 178.954 35.9634C178.417 35.7762 177.957 35.5239 177.574 35.2065C177.192 34.8892 176.874 34.5433 176.622 34.1689H176.476C176.5 34.4863 176.528 34.8688 176.561 35.3164C176.602 35.764 176.622 36.1546 176.622 36.4883V41.9814H174.583V22.6211H176.256L176.524 24.5986H176.622C176.882 24.1917 177.2 23.8215 177.574 23.4878C177.949 23.146 178.404 22.8774 178.941 22.6821C179.487 22.4787 180.13 22.377 180.87 22.377ZM180.516 24.0859C179.588 24.0859 178.84 24.265 178.27 24.623C177.708 24.9811 177.298 25.5182 177.037 26.2344C176.777 26.9424 176.638 27.8335 176.622 28.9077V29.2983C176.622 30.4295 176.744 31.3857 176.988 32.167C177.241 32.9482 177.652 33.5423 178.221 33.9492C178.799 34.3561 179.572 34.5596 180.541 34.5596C181.371 34.5596 182.062 34.3358 182.616 33.8882C183.169 33.4406 183.58 32.818 183.849 32.0205C184.125 31.2148 184.264 30.2912 184.264 29.2495C184.264 27.6707 183.954 26.4175 183.336 25.4897C182.726 24.5539 181.786 24.0859 180.516 24.0859Z" fill="#05284B"/>
<path d="M62.0151 31.9473L62.893 32.4261L62.8942 32.4239L62.0151 31.9473ZM58.8291 34.9868L59.2678 35.8854L59.27 35.8844L58.8291 34.9868ZM48.9414 36H47.9414V37H48.9414V36ZM48.9414 18.1533V17.1533H47.9414V18.1533H48.9414ZM59.0122 19.1543L58.5584 20.0454L58.5628 20.0476L59.0122 19.1543ZM62.0396 22.0962L61.161 22.5739L61.1646 22.5804L62.0396 22.0962ZM60.123 23.0117L59.2314 23.4645L59.2342 23.47L60.123 23.0117ZM57.7793 20.6924L57.3321 21.5869L57.3406 21.591L57.7793 20.6924ZM51.0166 19.9233V18.9233H50.0166V19.9233H51.0166ZM51.0166 34.2178H50.0166V35.2178H51.0166V34.2178ZM59.0732 32.3989L58.3732 31.6848L58.3709 31.6871L59.0732 32.3989ZM62.1138 26.9058C62.1138 28.799 61.7684 30.3043 61.136 31.4706L62.8942 32.4239C63.7267 30.8885 64.1138 29.0327 64.1138 26.9058H62.1138ZM61.1372 31.4684C60.5052 32.6272 59.5971 33.4954 58.3882 34.0893L59.27 35.8844C60.8443 35.111 62.0603 33.9529 62.893 32.4261L61.1372 31.4684ZM58.3904 34.0882C57.1767 34.6807 55.6549 35 53.7876 35V37C55.8754 37 57.7146 36.6438 59.2678 35.8854L58.3904 34.0882ZM53.7876 35H48.9414V37H53.7876V35ZM49.9414 36V18.1533H47.9414V36H49.9414ZM48.9414 19.1533H54.3247V17.1533H48.9414V19.1533ZM54.3247 19.1533C56.018 19.1533 57.4178 19.4645 58.5584 20.0454L59.4661 18.2632C57.9861 17.5095 56.2609 17.1533 54.3247 17.1533V19.1533ZM58.5628 20.0476C59.6889 20.6142 60.5493 21.4488 61.161 22.5739L62.9181 21.6185C62.1138 20.1394 60.9559 19.0128 59.4616 18.261L58.5628 20.0476ZM61.1646 22.5804C61.7781 23.6889 62.1138 25.1144 62.1138 26.9058H64.1138C64.1138 24.8723 63.7333 23.0913 62.9145 21.612L61.1646 22.5804ZM61.9287 26.979C61.9287 25.2721 61.6439 23.7792 61.0119 22.5534L59.2342 23.47C59.6764 24.3276 59.9287 25.4796 59.9287 26.979H61.9287ZM61.0147 22.5589C60.3889 21.3267 59.4503 20.3953 58.218 19.7938L57.3406 21.591C58.1754 21.9985 58.7992 22.6134 59.2314 23.4645L61.0147 22.5589ZM58.2265 19.798C57.0271 19.1983 55.607 18.9233 54.0073 18.9233V20.9233C55.3861 20.9233 56.4807 21.1611 57.3321 21.5868L58.2265 19.798ZM54.0073 18.9233H51.0166V20.9233H54.0073V18.9233ZM50.0166 19.9233V34.2178H52.0166V19.9233H50.0166ZM51.0166 35.2178H53.5435V33.2178H51.0166V35.2178ZM53.5435 35.2178C56.152 35.2178 58.2927 34.574 59.7756 33.1107L58.3709 31.6871C57.3961 32.6489 55.8503 33.2178 53.5435 33.2178V35.2178ZM59.7733 33.113C61.2665 31.6493 61.9287 29.5424 61.9287 26.979H59.9287C59.9287 29.217 59.354 30.7234 58.3732 31.6848L59.7733 33.113ZM76.1069 23.1338L76.6339 22.2839L76.1069 23.1338ZM77.9746 25.2578L77.0707 25.6856L77.0722 25.6887L77.9746 25.2578ZM78.6216 29.689V30.689H79.6216V29.689H78.6216ZM69.3809 29.689V28.689H68.3652L68.381 29.7045L69.3809 29.689ZM78.0234 33.5952H79.0234V32.0764L77.6282 32.6766L78.0234 33.5952ZM78.0234 35.3774L78.4306 36.2908L79.0234 36.0265V35.3774H78.0234ZM76.0093 36.0366L75.8063 35.0574L75.8039 35.0579L76.0093 36.0366ZM70.2964 35.4629L69.8107 36.3371L69.8196 36.3419L70.2964 35.4629ZM68.0747 33.1436L67.1875 33.6049L68.0747 33.1436ZM68.0015 25.6729L67.0935 25.2538L67.0921 25.2569L68.0015 25.6729ZM70.0522 23.2314L69.5119 22.39L69.5084 22.3923L70.0522 23.2314ZM69.4175 28.0654L68.4221 27.9697L68.3167 29.0654H69.4175V28.0654ZM76.4976 28.0654V29.0654H77.5078L77.4975 28.0552L76.4976 28.0654ZM76.1191 25.9658L75.1864 26.3265L75.1894 26.334L75.1924 26.3415L76.1191 25.9658ZM75.0327 24.5498L74.4592 25.3691L74.4685 25.3755L75.0327 24.5498ZM73.1772 23.377C74.1661 23.377 74.9523 23.5945 75.58 23.9837L76.6339 22.2839C75.634 21.664 74.4671 21.377 73.1772 21.377V23.377ZM75.58 23.9837C76.2212 24.3812 76.7172 24.9385 77.0707 25.6856L78.8785 24.8301C78.3694 23.7542 77.6203 22.8954 76.6339 22.2839L75.58 23.9837ZM77.0722 25.6887C77.4271 26.432 77.6216 27.3372 77.6216 28.4316H79.6216C79.6216 27.101 79.3847 25.8902 78.877 24.8269L77.0722 25.6887ZM77.6216 28.4316V29.689H79.6216V28.4316H77.6216ZM78.6216 28.689H69.3809V30.689H78.6216V28.689ZM68.381 29.7045C68.4077 31.4214 68.8371 32.8909 69.8171 33.9552L71.2884 32.6005C70.7547 32.0209 70.4029 31.0978 70.3807 29.6734L68.381 29.7045ZM69.8171 33.9552C70.8057 35.0288 72.1656 35.5107 73.751 35.5107V33.5107C72.5857 33.5107 71.8135 33.1707 71.2884 32.6005L69.8171 33.9552ZM73.751 35.5107C74.6557 35.5107 75.4846 35.4283 76.2281 35.2517L75.766 33.3059C75.2075 33.4385 74.539 33.5107 73.751 33.5107V35.5107ZM76.2281 35.2517C76.9424 35.0821 77.6729 34.8347 78.4186 34.5138L77.6282 32.6766C76.9743 32.958 76.3538 33.1663 75.766 33.3059L76.2281 35.2517ZM77.0234 33.5952V35.3774H79.0234V33.5952H77.0234ZM77.6163 34.4641C77.0008 34.7384 76.3977 34.9348 75.8063 35.0574L76.2123 37.0158C76.9555 36.8617 77.6952 36.6186 78.4306 36.2908L77.6163 34.4641ZM75.8039 35.0579C75.2306 35.1783 74.5216 35.2441 73.6655 35.2441V37.2441C74.6161 37.2441 75.4696 37.1717 76.2147 37.0153L75.8039 35.0579ZM73.6655 35.2441C72.5167 35.2441 71.5631 35.0123 70.7731 34.5839L69.8196 36.3419C70.9502 36.9551 72.2427 37.2441 73.6655 37.2441V35.2441ZM70.782 34.5887C70.0106 34.1602 69.4054 33.5351 68.9619 32.6822L67.1875 33.6049C67.8019 34.7865 68.6779 35.7077 69.8107 36.337L70.782 34.5887ZM68.9619 32.6822C68.5251 31.8422 68.2812 30.765 68.2812 29.4082H66.2812C66.2812 30.9974 66.5663 32.4104 67.1875 33.6049L68.9619 32.6822ZM68.2812 29.4082C68.2812 28.0767 68.5033 26.9799 68.9109 26.0888L67.0921 25.2569C66.5393 26.4654 66.2812 27.8588 66.2812 29.4082H68.2812ZM68.9094 26.0919C69.3277 25.1857 69.8933 24.5261 70.5961 24.0706L69.5084 22.3923C68.4534 23.0761 67.6518 24.0442 67.0935 25.2538L68.9094 26.0919ZM70.5926 24.0729C71.2975 23.6202 72.146 23.377 73.1772 23.377V21.377C71.8159 21.377 70.5811 21.7034 69.5119 22.39L70.5926 24.0729ZM73.1528 23.0371C71.8296 23.0371 70.683 23.4815 69.8246 24.4269L71.3053 25.7714C71.7326 25.3007 72.3113 25.0371 73.1528 25.0371V23.0371ZM69.8246 24.4269C68.9951 25.3403 68.5579 26.5566 68.4221 27.9697L70.4129 28.1611C70.5212 27.0352 70.8489 26.2739 71.3053 25.7714L69.8246 24.4269ZM69.4175 29.0654H76.4976V27.0654H69.4175V29.0654ZM77.4975 28.0552C77.4884 27.16 77.3465 26.3316 77.0459 25.5901L75.1924 26.3415C75.3801 26.8045 75.4905 27.3758 75.4976 28.0756L77.4975 28.0552ZM77.0518 25.6052C76.751 24.8271 76.2699 24.184 75.5969 23.7242L74.4685 25.3755C74.7721 25.5829 75.0153 25.8839 75.1864 26.3265L77.0518 25.6052ZM75.6062 23.7306C74.9078 23.2417 74.0649 23.0371 73.1528 23.0371V25.0371C73.7707 25.0371 74.1811 25.1743 74.4593 25.369L75.6062 23.7306ZM93.2505 23.5488L92.5579 24.2702L92.5617 24.2738L93.2505 23.5488ZM94.4712 36V37H95.4712V36H94.4712ZM92.4692 36H91.4692V37H92.4692V36ZM91.7002 24.916L90.9612 25.5898L90.9666 25.5956L91.7002 24.916ZM85.3403 36V37H86.3403V36H85.3403ZM83.314 36H82.314V37H83.314V36ZM83.314 22.6211V21.6211H82.314V22.6211H83.314ZM84.9497 22.6211L85.9374 22.4648L85.8039 21.6211H84.9497V22.6211ZM85.2549 24.5498L84.2672 24.7061L84.4007 25.5498H85.2549V24.5498ZM85.3647 24.5498V25.5498H85.9293L86.2209 25.0665L85.3647 24.5498ZM86.4512 23.3657L87.0367 24.1765L87.0464 24.1693L86.4512 23.3657ZM87.9282 22.6333L88.2143 23.5916L88.2273 23.5875L87.9282 22.6333ZM89.6494 23.377C91.0839 23.377 91.9948 23.7296 92.558 24.2702L93.943 22.8274C92.8786 21.8056 91.3888 21.377 89.6494 21.377V23.377ZM92.5617 24.2738C93.0925 24.778 93.4712 25.6977 93.4712 27.2842H95.4712C95.4712 25.4364 95.0361 23.8659 93.9392 22.8238L92.5617 24.2738ZM93.4712 27.2842V36H95.4712V27.2842H93.4712ZM94.4712 35H92.4692V37H94.4712V35ZM93.4692 36V27.4185H91.4692V36H93.4692ZM93.4692 27.4185C93.4692 26.1699 93.184 25.0462 92.4338 24.2364L90.9666 25.5956C91.2417 25.8926 91.4692 26.4372 91.4692 27.4185H93.4692ZM92.4392 24.2423C91.6788 23.4083 90.5834 23.0859 89.3687 23.0859V25.0859C90.2536 25.0859 90.7125 25.3169 90.9612 25.5898L92.4392 24.2423ZM89.3687 23.0859C87.7145 23.0859 86.2943 23.5589 85.4315 24.7598L87.0558 25.9267C87.3975 25.4512 88.0606 25.0859 89.3687 25.0859V23.0859ZM85.4315 24.7598C84.6569 25.838 84.3403 27.2955 84.3403 28.9932H86.3403C86.3403 27.5007 86.626 26.525 87.0558 25.9267L85.4315 24.7598ZM84.3403 28.9932V36H86.3403V28.9932H84.3403ZM85.3403 35H83.314V37H85.3403V35ZM84.314 36V22.6211H82.314V36H84.314ZM83.314 23.6211H84.9497V21.6211H83.314V23.6211ZM83.962 22.7774L84.2672 24.7061L86.2426 24.3935L85.9374 22.4648L83.962 22.7774ZM85.2549 25.5498H85.3647V23.5498H85.2549V25.5498ZM86.2209 25.0665C86.4374 24.7077 86.7082 24.4136 87.0367 24.1764L85.8657 22.555C85.3152 22.9526 84.8617 23.4479 84.5086 24.0331L86.2209 25.0665ZM87.0464 24.1693C87.3888 23.9157 87.7757 23.7224 88.2143 23.5915L87.6422 21.6751C86.9902 21.8697 86.3924 22.1648 85.8559 22.5622L87.0464 24.1693ZM88.2273 23.5875C88.6707 23.4486 89.1432 23.377 89.6494 23.377V21.377C88.9513 21.377 88.2763 21.4762 87.6291 21.6791L88.2273 23.5875ZM106.097 34.291H107.097V32.8543L105.75 33.3533L106.097 34.291ZM106.097 35.8657L106.506 36.7782L107.097 36.5133V35.8657H106.097ZM105.108 36.1343L104.938 35.1489L104.935 35.1495L105.108 36.1343ZM101.959 35.8779L101.559 36.7944L101.57 36.7991L101.959 35.8779ZM100.567 34.6084L99.7006 35.1071L99.7058 35.1159L100.567 34.6084ZM100.055 24.208H101.055V23.208H100.055V24.208ZM98.1504 24.208H97.1504V25.208H98.1504V24.208ZM98.1504 23.2192L97.7679 22.2953L97.1504 22.5509V23.2192H98.1504ZM100.067 22.4258L100.449 23.3497L100.9 23.1631L101.031 22.693L100.067 22.4258ZM100.873 19.5205V18.5205H100.112L99.9089 19.2533L100.873 19.5205ZM102.093 19.5205H103.093V18.5205H102.093V19.5205ZM102.093 22.6211H101.093V23.6211H102.093V22.6211ZM106.012 22.6211H107.012V21.6211H106.012V22.6211ZM106.012 24.208V25.208H107.012V24.208H106.012ZM102.093 24.208V23.208H101.093V24.208H102.093ZM102.667 33.9614L101.932 34.6391L101.939 34.6468L102.667 33.9614ZM104.217 35.584C104.608 35.584 105.004 35.5506 105.403 35.4855L105.082 33.5115C104.782 33.5604 104.494 33.584 104.217 33.584V35.584ZM105.403 35.4855C105.788 35.4229 106.142 35.3408 106.444 35.2288L105.75 33.3533C105.613 33.404 105.397 33.4602 105.082 33.5115L105.403 35.4855ZM105.097 34.291V35.8657H107.097V34.291H105.097ZM105.688 34.9532C105.562 35.0099 105.325 35.0819 104.938 35.1489L105.279 37.1196C105.738 37.0402 106.161 36.9332 106.506 36.7782L105.688 34.9532ZM104.935 35.1495C104.574 35.2132 104.225 35.2441 103.888 35.2441V37.2441C104.348 37.2441 104.813 37.2019 105.282 37.1191L104.935 35.1495ZM103.888 35.2441C103.296 35.2441 102.788 35.1426 102.348 34.9568L101.57 36.7991C102.286 37.1015 103.063 37.2441 103.888 37.2441V35.2441ZM102.359 34.9615C101.993 34.8014 101.683 34.5313 101.429 34.1009L99.7058 35.1159C100.152 35.8736 100.77 36.4499 101.559 36.7944L102.359 34.9615ZM101.434 34.1097C101.214 33.7273 101.055 33.1028 101.055 32.1426H99.0547C99.0547 33.282 99.237 34.3013 99.7006 35.1071L101.434 34.1097ZM101.055 32.1426V24.208H99.0547V32.1426H101.055ZM100.055 23.208H98.1504V25.208H100.055V23.208ZM99.1504 24.208V23.2192H97.1504V24.208H99.1504ZM98.5329 24.1432L100.449 23.3497L99.6844 21.5018L97.7679 22.2953L98.5329 24.1432ZM101.031 22.693L101.836 19.7877L99.9089 19.2533L99.1033 22.1586L101.031 22.693ZM100.873 20.5205H102.093V18.5205H100.873V20.5205ZM101.093 19.5205V22.6211H103.093V19.5205H101.093ZM102.093 23.6211H106.012V21.6211H102.093V23.6211ZM105.012 22.6211V24.208H107.012V22.6211H105.012ZM106.012 23.208H102.093V25.208H106.012V23.208ZM101.093 24.208V32.0815H103.093V24.208H101.093ZM101.093 32.0815C101.093 33.0515 101.312 33.9672 101.932 34.6391L103.402 33.2837C103.257 33.1256 103.093 32.7881 103.093 32.0815H101.093ZM101.939 34.6468C102.543 35.2893 103.338 35.584 104.217 35.584V33.584C103.811 33.584 103.572 33.4637 103.395 33.2761L101.939 34.6468ZM112.083 22.6211H113.083V21.6211H112.083V22.6211ZM112.083 36V37H113.083V36H112.083ZM110.057 36H109.057V37H110.057V36ZM110.057 22.6211V21.6211H109.057V22.6211H110.057ZM111.949 17.9458L111.268 18.6777L111.281 18.6898L111.294 18.7015L111.949 17.9458ZM111.949 19.9478L111.28 19.2045L111.274 19.2101L111.268 19.2159L111.949 19.9478ZM110.216 19.9478L109.522 20.6676L109.528 20.6737L109.534 20.6796L110.216 19.9478ZM110.216 17.9458L110.896 18.6786L110.897 18.6777L110.216 17.9458ZM111.083 22.6211V36H113.083V22.6211H111.083ZM112.083 35H110.057V37H112.083V35ZM111.057 36V22.6211H109.057V36H111.057ZM110.057 23.6211H112.083V21.6211H110.057V23.6211ZM111.095 18.6162C111.185 18.6162 111.224 18.6368 111.268 18.6777L112.631 17.2139C112.203 16.8154 111.672 16.6162 111.095 16.6162V18.6162ZM111.294 18.7015C111.276 18.6854 111.276 18.6745 111.285 18.6983C111.296 18.7289 111.315 18.8046 111.315 18.9468H113.315C113.315 18.3244 113.146 17.6598 112.604 17.1901L111.294 18.7015ZM111.315 18.9468C111.315 19.0825 111.297 19.1568 111.285 19.1891C111.275 19.2155 111.271 19.2126 111.28 19.2045L112.618 20.691C113.141 20.2202 113.315 19.5707 113.315 18.9468H111.315ZM111.268 19.2159C111.224 19.2568 111.185 19.2773 111.095 19.2773V21.2773C111.672 21.2773 112.203 21.0782 112.631 20.6796L111.268 19.2159ZM111.095 19.2773C110.974 19.2773 110.932 19.2479 110.897 19.2159L109.534 20.6796C109.972 21.0871 110.515 21.2773 111.095 21.2773V19.2773ZM110.91 19.2279C110.923 19.2404 110.917 19.2434 110.906 19.2096C110.892 19.1705 110.874 19.0889 110.874 18.9468H108.874C108.874 19.5516 109.029 20.1926 109.522 20.6676L110.91 19.2279ZM110.874 18.9468C110.874 18.7984 110.893 18.7153 110.906 18.6779C110.917 18.6463 110.919 18.6576 110.896 18.6786L109.535 17.213C109.025 17.6874 108.874 18.3436 108.874 18.9468H110.874ZM110.897 18.6777C110.932 18.6457 110.974 18.6162 111.095 18.6162V16.6162C110.515 16.6162 109.972 16.8065 109.534 17.2139L110.897 18.6777ZM125.638 34.4985L124.833 33.9057L124.831 33.9077L125.638 34.4985ZM123.807 35.8047L123.462 34.866L123.459 34.8672L123.807 35.8047ZM116.751 35.4019H115.751V36.0069L116.287 36.2877L116.751 35.4019ZM116.751 33.5342L117.193 32.6371L115.751 31.9269V33.5342H116.751ZM124.002 31.5444L123.189 32.1257L123.198 32.1389L123.208 32.1519L124.002 31.5444ZM122.965 30.7266L122.483 31.6029L122.494 31.6089L122.965 30.7266ZM120.938 29.8477L120.582 30.7822L120.593 30.7861L120.938 29.8477ZM118.717 28.8833L118.251 29.7682L118.258 29.7719L118.265 29.7754L118.717 28.8833ZM117.276 27.6992L116.465 28.2832L116.471 28.2924L117.276 27.6992ZM118.143 23.2925L118.694 24.1268L118.696 24.1257L118.143 23.2925ZM124.015 22.6211L123.788 23.5952L123.801 23.5981L124.015 22.6211ZM125.992 23.2559L126.914 23.6439L127.296 22.7369L126.395 22.3405L125.992 23.2559ZM125.309 24.8794L124.916 25.7992L125.84 26.1933L126.23 25.2675L125.309 24.8794ZM123.539 24.2812L123.287 25.2491L123.539 24.2812ZM119.461 24.501L118.939 23.6484L118.933 23.6522L119.461 24.501ZM119.059 26.7959L118.296 27.4429L118.302 27.4495L118.307 27.456L119.059 26.7959ZM122.208 28.3828L121.854 29.3181L121.862 29.321L122.208 28.3828ZM124.381 29.3472L123.901 30.2247L123.91 30.2295L124.381 29.3472ZM125.785 30.5435L124.961 31.1112L124.967 31.1193L124.973 31.1274L125.785 30.5435ZM125.285 32.3379C125.285 33.0175 125.117 33.5201 124.833 33.9057L126.444 35.0914C127.022 34.3051 127.285 33.3673 127.285 32.3379H125.285ZM124.831 33.9077C124.545 34.2989 124.11 34.6281 123.462 34.866L124.152 36.7434C125.099 36.3954 125.885 35.8538 126.445 35.0894L124.831 33.9077ZM123.459 34.8672C122.809 35.1084 121.989 35.2441 120.975 35.2441V37.2441C122.158 37.2441 123.226 37.0869 124.155 36.7422L123.459 34.8672ZM120.975 35.2441C120.088 35.2441 119.352 35.1743 118.755 35.0466L118.336 37.0022C119.107 37.1675 119.991 37.2441 120.975 37.2441V35.2441ZM118.755 35.0466C118.143 34.9153 117.633 34.7349 117.215 34.516L116.287 36.2877C116.895 36.6059 117.582 36.8405 118.336 37.0022L118.755 35.0466ZM117.751 35.4019V33.5342H115.751V35.4019H117.751ZM116.31 34.4313C116.92 34.7319 117.628 34.9954 118.426 35.2269L118.983 33.3063C118.267 33.0983 117.673 32.8736 117.193 32.6371L116.31 34.4313ZM118.426 35.2269C119.273 35.473 120.14 35.5962 121.024 35.5962V33.5962C120.329 33.5962 119.649 33.4996 118.983 33.3063L118.426 35.2269ZM121.024 35.5962C122.242 35.5962 123.342 35.4076 124.122 34.8467L122.955 33.2227C122.694 33.4105 122.117 33.5962 121.024 33.5962V35.5962ZM124.122 34.8467C124.905 34.2839 125.32 33.4727 125.32 32.5088H123.32C123.32 32.8307 123.214 33.0367 122.955 33.2227L124.122 34.8467ZM125.32 32.5088C125.32 31.9351 125.149 31.3974 124.797 30.937L123.208 32.1519C123.279 32.2448 123.32 32.3501 123.32 32.5088H125.32ZM124.816 30.9632C124.486 30.5008 123.989 30.1394 123.435 29.8442L122.494 31.6089C122.917 31.8345 123.112 32.0185 123.189 32.1257L124.816 30.9632ZM123.447 29.8503C122.896 29.5472 122.167 29.2343 121.284 28.9092L120.593 30.7861C121.435 31.0958 122.058 31.3688 122.483 31.6028L123.447 29.8503ZM121.294 28.9132C120.464 28.5966 119.756 28.2889 119.169 27.9912L118.265 29.7754C118.93 30.1125 119.704 30.4477 120.582 30.7821L121.294 28.9132ZM119.183 27.9984C118.67 27.7285 118.317 27.4251 118.081 27.106L116.471 28.2924C116.92 28.9011 117.527 29.3871 118.251 29.7682L119.183 27.9984ZM118.088 27.1153C117.909 26.8657 117.776 26.4855 117.776 25.8926H115.776C115.776 26.7808 115.977 27.605 116.465 28.2831L118.088 27.1153ZM117.776 25.8926C117.776 25.0829 118.075 24.5362 118.694 24.1268L117.592 22.4581C116.388 23.2532 115.776 24.4399 115.776 25.8926H117.776ZM118.696 24.1257C119.404 23.656 120.397 23.377 121.756 23.377V21.377C120.137 21.377 118.722 21.7082 117.59 22.4593L118.696 24.1257ZM121.756 23.377C122.495 23.377 123.171 23.4515 123.788 23.5951L124.241 21.6471C123.459 21.4651 122.629 21.377 121.756 21.377V23.377ZM123.801 23.5981C124.45 23.7397 125.045 23.9316 125.589 24.1712L126.395 22.3405C125.719 22.043 124.995 21.8117 124.228 21.6441L123.801 23.5981ZM125.071 22.8678L124.387 24.4913L126.23 25.2675L126.914 23.6439L125.071 22.8678ZM125.701 23.9596C125.098 23.7026 124.461 23.4877 123.79 23.3134L123.287 25.2491C123.869 25.4003 124.412 25.5841 124.916 25.7992L125.701 23.9596ZM123.79 23.3134C123.081 23.1292 122.357 23.0371 121.622 23.0371V25.0371C122.189 25.0371 122.743 25.1078 123.287 25.2491L123.79 23.3134ZM121.622 23.0371C120.599 23.0371 119.667 23.202 118.939 23.6484L119.984 25.3536C120.265 25.1815 120.773 25.0371 121.622 25.0371V23.0371ZM118.933 23.6522C118.174 24.1246 117.717 24.8528 117.717 25.7705H119.717C119.717 25.614 119.756 25.4959 119.99 25.3498L118.933 23.6522ZM117.717 25.7705C117.717 26.3781 117.888 26.9624 118.296 27.4429L119.821 26.1489C119.773 26.0923 119.717 25.993 119.717 25.7705H117.717ZM118.307 27.456C118.674 27.873 119.189 28.1967 119.763 28.4611L120.6 26.6444C120.149 26.4367 119.915 26.2559 119.81 26.1358L118.307 27.456ZM119.763 28.4611C120.306 28.7107 121.005 28.9966 121.854 29.318L122.562 27.4476C121.735 27.1343 121.083 26.8668 120.6 26.6444L119.763 28.4611ZM121.862 29.321C122.666 29.6178 123.344 29.92 123.901 30.2246L124.861 28.4697C124.197 28.1071 123.426 27.7663 122.554 27.4446L121.862 29.321ZM123.91 30.2295C124.408 30.4952 124.744 30.7952 124.961 31.1112L126.608 29.9757C126.175 29.3477 125.574 28.8502 124.851 28.4648L123.91 30.2295ZM124.973 31.1274C125.154 31.3787 125.285 31.7559 125.285 32.3379H127.285C127.285 31.4551 127.083 30.6359 126.596 29.9595L124.973 31.1274ZM136.996 34.291H137.996V32.8543L136.648 33.3533L136.996 34.291ZM136.996 35.8657L137.405 36.7782L137.996 36.5133V35.8657H136.996ZM136.007 36.1343L135.836 35.1489L135.833 35.1495L136.007 36.1343ZM132.857 35.8779L132.457 36.7944L132.468 36.7991L132.857 35.8779ZM131.466 34.6084L130.599 35.1071L130.604 35.1159L131.466 34.6084ZM130.953 24.208H131.953V23.208H130.953V24.208ZM129.049 24.208H128.049V25.208H129.049V24.208ZM129.049 23.2192L128.666 22.2953L128.049 22.5509V23.2192H129.049ZM130.965 22.4258L131.348 23.3497L131.799 23.1631L131.929 22.693L130.965 22.4258ZM131.771 19.5205V18.5205H131.011L130.807 19.2533L131.771 19.5205ZM132.992 19.5205H133.992V18.5205H132.992V19.5205ZM132.992 22.6211H131.992V23.6211H132.992V22.6211ZM136.91 22.6211H137.91V21.6211H136.91V22.6211ZM136.91 24.208V25.208H137.91V24.208H136.91ZM132.992 24.208V23.208H131.992V24.208H132.992ZM133.565 33.9614L132.83 34.6391L132.837 34.6468L133.565 33.9614ZM135.116 35.584C135.506 35.584 135.902 35.5506 136.302 35.4855L135.98 33.5115C135.68 33.5604 135.392 33.584 135.116 33.584V35.584ZM136.302 35.4855C136.687 35.4229 137.04 35.3408 137.343 35.2288L136.648 33.3533C136.511 33.404 136.296 33.4602 135.98 33.5115L136.302 35.4855ZM135.996 34.291V35.8657H137.996V34.291H135.996ZM136.587 34.9532C136.46 35.0099 136.224 35.0819 135.836 35.1489L136.177 37.1196C136.636 37.0402 137.059 36.9332 137.405 36.7782L136.587 34.9532ZM135.833 35.1495C135.472 35.2132 135.123 35.2441 134.786 35.2441V37.2441C135.246 37.2441 135.711 37.2019 136.181 37.1191L135.833 35.1495ZM134.786 35.2441C134.195 35.2441 133.686 35.1426 133.247 34.9568L132.468 36.7991C133.184 37.1015 133.962 37.2441 134.786 37.2441V35.2441ZM133.258 34.9615C132.891 34.8014 132.581 34.5313 132.327 34.1009L130.604 35.1159C131.051 35.8736 131.668 36.4499 132.457 36.7944L133.258 34.9615ZM132.333 34.1097C132.113 33.7273 131.953 33.1028 131.953 32.1426H129.953C129.953 33.282 130.135 34.3013 130.599 35.1071L132.333 34.1097ZM131.953 32.1426V24.208H129.953V32.1426H131.953ZM130.953 23.208H129.049V25.208H130.953V23.208ZM130.049 24.208V23.2192H128.049V24.208H130.049ZM129.431 24.1432L131.348 23.3497L130.583 21.5018L128.666 22.2953L129.431 24.1432ZM131.929 22.693L132.735 19.7877L130.807 19.2533L130.002 22.1586L131.929 22.693ZM131.771 20.5205H132.992V18.5205H131.771V20.5205ZM131.992 19.5205V22.6211H133.992V19.5205H131.992ZM132.992 23.6211H136.91V21.6211H132.992V23.6211ZM135.91 22.6211V24.208H137.91V22.6211H135.91ZM136.91 23.208H132.992V25.208H136.91V23.208ZM131.992 24.208V32.0815H133.992V24.208H131.992ZM131.992 32.0815C131.992 33.0515 132.211 33.9672 132.83 34.6391L134.301 33.2837C134.155 33.1256 133.992 32.7881 133.992 32.0815H131.992ZM132.837 34.6468C133.442 35.2893 134.236 35.584 135.116 35.584V33.584C134.71 33.584 134.47 33.4637 134.294 33.2761L132.837 34.6468ZM152.455 36L151.522 36.3617L151.77 37H152.455V36ZM150.257 30.3359L151.19 29.9743L150.942 29.3359H150.257V30.3359ZM143.104 30.3359V29.3359H142.418L142.171 29.976L143.104 30.3359ZM140.919 36V37H141.605L141.852 36.3599L140.919 36ZM138.819 36L137.888 35.6369L137.356 37H138.819V36ZM145.802 18.0801V17.0801H145.118L144.87 17.717L145.802 18.0801ZM147.669 18.0801L148.602 17.7192L148.355 17.0801H147.669V18.0801ZM154.603 36V37H156.062L155.536 35.6391L154.603 36ZM149.635 28.4927V29.4927H151.072L150.572 28.1449L149.635 28.4927ZM147.547 22.8652L146.599 23.1815L146.604 23.1973L146.61 23.213L147.547 22.8652ZM147.303 22.145L146.35 22.4473L146.353 22.4578L146.357 22.4682L147.303 22.145ZM146.693 20.2407L147.642 19.9245L146.544 16.6314L145.721 20.0038L146.693 20.2407ZM146.424 21.2417L145.465 20.9608L145.462 20.9687L145.46 20.9765L146.424 21.2417ZM146.156 22.1572L147.107 22.4651L147.11 22.4571L146.156 22.1572ZM145.924 22.8652L146.859 23.2184L146.866 23.2L146.873 23.1815L145.924 22.8652ZM143.8 28.4927L142.864 28.1396L142.354 29.4927H143.8V28.4927ZM153.387 35.6383L151.19 29.9743L149.325 30.6976L151.522 36.3617L153.387 35.6383ZM150.257 29.3359H143.104V31.3359H150.257V29.3359ZM142.171 29.976L139.986 35.6401L141.852 36.3599L144.037 30.6959L142.171 29.976ZM140.919 35H138.819V37H140.919V35ZM139.751 36.3631L146.734 18.4431L144.87 17.717L137.888 35.6369L139.751 36.3631ZM145.802 19.0801H147.669V17.0801H145.802V19.0801ZM146.737 18.4409L153.67 36.3609L155.536 35.6391L148.602 17.7192L146.737 18.4409ZM154.603 35H152.455V37H154.603V35ZM150.572 28.1449L148.485 22.5175L146.61 23.213L148.697 28.8405L150.572 28.1449ZM148.496 22.549C148.446 22.3988 148.364 22.1557 148.25 21.8219L146.357 22.4682C146.471 22.8017 146.551 23.0387 146.599 23.1815L148.496 22.549ZM148.256 21.8428C148.151 21.5088 148.041 21.1626 147.927 20.8042L146.021 21.4106C146.135 21.7684 146.244 22.1139 146.35 22.4473L148.256 21.8428ZM147.927 20.8042C147.812 20.4441 147.717 20.1504 147.642 19.9245L145.744 20.557C145.815 20.7705 145.907 21.0546 146.021 21.4106L147.927 20.8042ZM145.721 20.0038C145.644 20.3225 145.558 20.6415 145.465 20.9608L147.384 21.5226C147.486 21.1746 147.579 20.8263 147.664 20.4777L145.721 20.0038ZM145.46 20.9765C145.373 21.2919 145.287 21.5854 145.202 21.8574L147.11 22.4571C147.203 22.1594 147.296 21.8425 147.389 21.5069L145.46 20.9765ZM145.204 21.8494C145.115 22.1243 145.039 22.3574 144.975 22.549L146.873 23.1815C146.939 22.9825 147.017 22.7435 147.107 22.465L145.204 21.8494ZM144.988 22.5121L142.864 28.1396L144.735 28.8458L146.859 23.2184L144.988 22.5121ZM143.8 29.4927H149.635V27.4927H143.8V29.4927ZM168.304 24.0981L169.06 23.4438L168.304 24.0981ZM167.181 35.4507L166.644 34.6074L166.64 34.6098L167.181 35.4507ZM160.064 34.1689L160.894 33.6101L160.596 33.1689H160.064V34.1689ZM159.918 34.1689V33.1689H158.838L158.921 34.2456L159.918 34.1689ZM160.003 35.3164L159.006 35.3889L159.007 35.3979L159.008 35.4069L160.003 35.3164ZM160.064 41.9814V42.9814H161.064V41.9814H160.064ZM158.026 41.9814H157.026V42.9814H158.026V41.9814ZM158.026 22.6211V21.6211H157.026V22.6211H158.026ZM159.698 22.6211L160.689 22.4865L160.572 21.6211H159.698V22.6211ZM159.967 24.5986L158.976 24.7332L159.093 25.5986H159.967V24.5986ZM160.064 24.5986V25.5986H160.612L160.907 25.1377L160.064 24.5986ZM161.017 23.4878L161.682 24.2344L161.691 24.2263L161.017 23.4878ZM162.384 22.6821L162.726 23.622L162.733 23.619L162.384 22.6821ZM161.712 24.623L161.18 23.7764L161.175 23.7799L161.712 24.623ZM160.479 26.2344L161.418 26.5796L161.419 26.5761L160.479 26.2344ZM160.064 28.9077L159.065 28.8926L159.064 28.9001V28.9077H160.064ZM160.431 32.167L159.476 32.4653L159.479 32.4743L160.431 32.167ZM161.664 33.9492L161.082 34.763L161.088 34.7668L161.664 33.9492ZM166.058 33.8882L165.429 33.1107L166.058 33.8882ZM167.291 32.0205L166.345 31.6957L166.343 31.7014L167.291 32.0205ZM166.778 25.4897L165.941 26.036L165.946 26.0444L166.778 25.4897ZM164.312 23.377C165.723 23.377 166.765 23.848 167.548 24.7525L169.06 23.4438C167.857 22.0534 166.239 21.377 164.312 21.377V23.377ZM167.548 24.7525C168.32 25.6444 168.793 27.0913 168.793 29.2739H170.793C170.793 26.8504 170.274 24.8468 169.06 23.4438L167.548 24.7525ZM168.793 29.2739C168.793 30.7024 168.579 31.833 168.195 32.7035L170.025 33.5104C170.553 32.3138 170.793 30.8891 170.793 29.2739H168.793ZM168.195 32.7035C167.807 33.5837 167.284 34.1996 166.644 34.6074L167.719 36.294C168.739 35.6439 169.502 34.6972 170.025 33.5104L168.195 32.7035ZM166.64 34.6098C166.002 35.0201 165.224 35.2441 164.264 35.2441V37.2441C165.549 37.2441 166.716 36.9392 167.722 36.2916L166.64 34.6098ZM164.264 35.2441C163.641 35.2441 163.134 35.1616 162.725 35.0191L162.067 36.9077C162.732 37.1395 163.47 37.2441 164.264 37.2441V35.2441ZM162.725 35.0191C162.285 34.8656 161.934 34.6679 161.655 34.437L160.378 35.9761C160.865 36.3799 161.433 36.6868 162.067 36.9077L162.725 35.0191ZM161.655 34.437C161.339 34.1743 161.088 33.898 160.894 33.6101L159.235 34.7278C159.546 35.1886 159.93 35.604 160.378 35.9761L161.655 34.437ZM160.064 33.1689H159.918V35.1689H160.064V33.1689ZM158.921 34.2456C158.945 34.5612 158.974 34.9422 159.006 35.3889L161.001 35.2439C160.968 34.7954 160.94 34.4114 160.915 34.0922L158.921 34.2456ZM159.008 35.4069C159.046 35.834 159.064 36.1931 159.064 36.4883H161.064C161.064 36.1161 161.042 35.694 160.999 35.2259L159.008 35.4069ZM159.064 36.4883V41.9814H161.064V36.4883H159.064ZM160.064 40.9814H158.026V42.9814H160.064V40.9814ZM159.026 41.9814V22.6211H157.026V41.9814H159.026ZM158.026 23.6211H159.698V21.6211H158.026V23.6211ZM158.707 22.7557L158.976 24.7332L160.958 24.4641L160.689 22.4865L158.707 22.7557ZM159.967 25.5986H160.064V23.5986H159.967V25.5986ZM160.907 25.1377C161.116 24.8106 161.373 24.5095 161.682 24.2343L160.351 22.7413C159.911 23.1334 159.534 23.5729 159.222 24.0596L160.907 25.1377ZM161.691 24.2263C161.957 23.9832 162.296 23.7782 162.726 23.6219L162.042 21.7423C161.398 21.9767 160.825 22.3088 160.342 22.7493L161.691 24.2263ZM162.733 23.619C163.141 23.4669 163.66 23.377 164.312 23.377V21.377C163.484 21.377 162.717 21.4904 162.034 21.7452L162.733 23.619ZM163.958 23.0859C162.911 23.0859 161.959 23.287 161.18 23.7764L162.245 25.4697C162.605 25.243 163.15 25.0859 163.958 25.0859V23.0859ZM161.175 23.7799C160.401 24.273 159.864 25.0009 159.54 25.8926L161.419 26.5761C161.616 26.0356 161.9 25.6892 162.25 25.4662L161.175 23.7799ZM159.541 25.8892C159.229 26.7374 159.082 27.7494 159.065 28.8926L161.064 28.9229C161.08 27.9175 161.209 27.1473 161.418 26.5796L159.541 25.8892ZM159.064 28.9077V29.2983H161.064V28.9077H159.064ZM159.064 29.2983C159.064 30.495 159.193 31.5585 159.476 32.4653L161.385 31.8687C161.18 31.213 161.064 30.364 161.064 29.2983H159.064ZM159.479 32.4743C159.785 33.4232 160.309 34.2108 161.082 34.763L162.245 33.1355C161.879 32.8739 161.58 32.4733 161.382 31.8597L159.479 32.4743ZM161.088 34.7668C161.886 35.3291 162.883 35.5596 163.983 35.5596V33.5596C163.146 33.5596 162.596 33.3831 162.239 33.1316L161.088 34.7668ZM163.983 35.5596C165.002 35.5596 165.927 35.2805 166.687 34.6657L165.429 33.1107C165.083 33.3911 164.624 33.5596 163.983 33.5596V35.5596ZM166.687 34.6657C167.413 34.0784 167.921 33.2838 168.239 32.3396L166.343 31.7014C166.124 32.3522 165.81 32.8028 165.429 33.1107L166.687 34.6657ZM168.237 32.3453C168.556 31.4148 168.706 30.378 168.706 29.2495H166.706C166.706 30.2044 166.579 31.0149 166.345 31.6957L168.237 32.3453ZM168.706 29.2495C168.706 27.5521 168.375 26.0822 167.61 24.935L165.946 26.0444C166.418 26.7528 166.706 27.7894 166.706 29.2495H168.706ZM167.616 24.9435C166.793 23.6821 165.512 23.0859 163.958 23.0859V25.0859C164.944 25.0859 165.543 25.4257 165.941 26.036L167.616 24.9435ZM184.862 24.0981L185.618 23.4438L184.862 24.0981ZM183.739 35.4507L183.201 34.6074L183.198 34.6098L183.739 35.4507ZM176.622 34.1689L177.451 33.6101L177.154 33.1689H176.622V34.1689ZM176.476 34.1689V33.1689H175.396L175.479 34.2456L176.476 34.1689ZM176.561 35.3164L175.564 35.3889L175.564 35.3979L175.565 35.4069L176.561 35.3164ZM176.622 41.9814V42.9814H177.622V41.9814H176.622ZM174.583 41.9814H173.583V42.9814H174.583V41.9814ZM174.583 22.6211V21.6211H173.583V22.6211H174.583ZM176.256 22.6211L177.247 22.4865L177.129 21.6211H176.256V22.6211ZM176.524 24.5986L175.534 24.7332L175.651 25.5986H176.524V24.5986ZM176.622 24.5986V25.5986H177.169L177.464 25.1377L176.622 24.5986ZM177.574 23.4878L178.24 24.2344L178.248 24.2263L177.574 23.4878ZM178.941 22.6821L179.283 23.622L179.291 23.619L178.941 22.6821ZM178.27 24.623L177.738 23.7764L177.732 23.7799L178.27 24.623ZM177.037 26.2344L177.976 26.5796L177.977 26.5761L177.037 26.2344ZM176.622 28.9077L175.622 28.8926L175.622 28.9001V28.9077H176.622ZM176.988 32.167L176.034 32.4653L176.037 32.4743L176.988 32.167ZM178.221 33.9492L177.64 34.763L177.645 34.7668L178.221 33.9492ZM182.616 33.8882L181.987 33.1107L182.616 33.8882ZM183.849 32.0205L182.903 31.6957L182.901 31.7014L183.849 32.0205ZM183.336 25.4897L182.498 26.036L182.504 26.0444L183.336 25.4897ZM180.87 23.377C182.281 23.377 183.323 23.848 184.106 24.7525L185.618 23.4438C184.415 22.0534 182.796 21.377 180.87 21.377V23.377ZM184.106 24.7525C184.877 25.6444 185.351 27.0913 185.351 29.2739H187.351C187.351 26.8504 186.832 24.8468 185.618 23.4438L184.106 24.7525ZM185.351 29.2739C185.351 30.7024 185.136 31.833 184.752 32.7035L186.582 33.5104C187.11 32.3138 187.351 30.8891 187.351 29.2739H185.351ZM184.752 32.7035C184.364 33.5837 183.841 34.1996 183.201 34.6074L184.276 36.294C185.296 35.6439 186.059 34.6972 186.582 33.5104L184.752 32.7035ZM183.198 34.6098C182.56 35.0201 181.782 35.2441 180.821 35.2441V37.2441C182.107 37.2441 183.274 36.9392 184.28 36.2916L183.198 34.6098ZM180.821 35.2441C180.199 35.2441 179.692 35.1616 179.283 35.0191L178.625 36.9077C179.29 37.1395 180.028 37.2441 180.821 37.2441V35.2441ZM179.283 35.0191C178.842 34.8656 178.491 34.6679 178.213 34.437L176.936 35.9761C177.422 36.3799 177.991 36.6868 178.625 36.9077L179.283 35.0191ZM178.213 34.437C177.896 34.1743 177.645 33.898 177.451 33.6101L175.793 34.7278C176.103 35.1886 176.487 35.604 176.936 35.9761L178.213 34.437ZM176.622 33.1689H176.476V35.1689H176.622V33.1689ZM175.479 34.2456C175.503 34.5612 175.531 34.9422 175.564 35.3889L177.558 35.2439C177.526 34.7954 177.497 34.4114 177.473 34.0922L175.479 34.2456ZM175.565 35.4069C175.604 35.834 175.622 36.1931 175.622 36.4883H177.622C177.622 36.1161 177.599 35.694 177.557 35.2259L175.565 35.4069ZM175.622 36.4883V41.9814H177.622V36.4883H175.622ZM176.622 40.9814H174.583V42.9814H176.622V40.9814ZM175.583 41.9814V22.6211H173.583V41.9814H175.583ZM174.583 23.6211H176.256V21.6211H174.583V23.6211ZM175.265 22.7557L175.534 24.7332L177.515 24.4641L177.247 22.4865L175.265 22.7557ZM176.524 25.5986H176.622V23.5986H176.524V25.5986ZM177.464 25.1377C177.674 24.8106 177.931 24.5095 178.24 24.2343L176.909 22.7413C176.469 23.1334 176.091 23.5729 175.78 24.0596L177.464 25.1377ZM178.248 24.2263C178.515 23.9832 178.853 23.7782 179.283 23.6219L178.6 21.7423C177.955 21.9767 177.382 22.3088 176.9 22.7493L178.248 24.2263ZM179.291 23.619C179.699 23.4669 180.218 23.377 180.87 23.377V21.377C180.041 21.377 179.275 21.4904 178.592 21.7452L179.291 23.619ZM180.516 23.0859C179.469 23.0859 178.516 23.287 177.738 23.7764L178.802 25.4697C179.163 25.243 179.708 25.0859 180.516 25.0859V23.0859ZM177.732 23.7799C176.959 24.273 176.422 25.0009 176.097 25.8926L177.977 26.5761C178.173 26.0356 178.458 25.6892 178.808 25.4662L177.732 23.7799ZM176.099 25.8892C175.787 26.7374 175.64 27.7494 175.622 28.8926L177.622 28.9229C177.637 27.9175 177.767 27.1473 177.976 26.5796L176.099 25.8892ZM175.622 28.9077V29.2983H177.622V28.9077H175.622ZM175.622 29.2983C175.622 30.495 175.75 31.5585 176.034 32.4653L177.943 31.8687C177.738 31.213 177.622 30.364 177.622 29.2983H175.622ZM176.037 32.4743C176.343 33.4232 176.867 34.2108 177.64 34.763L178.802 33.1355C178.436 32.8739 178.138 32.4733 177.94 31.8597L176.037 32.4743ZM177.645 34.7668C178.444 35.3291 179.441 35.5596 180.541 35.5596V33.5596C179.704 33.5596 179.154 33.3831 178.797 33.1316L177.645 34.7668ZM180.541 35.5596C181.56 35.5596 182.485 35.2805 183.245 34.6657L181.987 33.1107C181.64 33.3911 181.182 33.5596 180.541 33.5596V35.5596ZM183.245 34.6657C183.971 34.0784 184.478 33.2838 184.796 32.3396L182.901 31.7014C182.682 32.3522 182.367 32.8028 181.987 33.1107L183.245 34.6657ZM184.794 32.3453C185.114 31.4148 185.264 30.378 185.264 29.2495H183.264C183.264 30.2044 183.137 31.0149 182.903 31.6957L184.794 32.3453ZM185.264 29.2495C185.264 27.5521 184.933 26.0822 184.168 24.935L182.504 26.0444C182.976 26.7528 183.264 27.7894 183.264 29.2495H185.264ZM184.174 24.9435C183.351 23.6821 182.07 23.0859 180.516 23.0859V25.0859C181.502 25.0859 182.1 25.4257 182.498 26.036L184.174 24.9435Z" fill="black"/>
</svg>